{
  "source": "C:\\Users\\Peter\\Desktop\\stuff\\MIUN\\quantitative_research\\video_compression\\videos\\BVI-HD\\BVI-HD_CDVL_videos\\ORIG\\Typing_1920x1080_60fps.mp4",
  "output": "C:\\Users\\Peter\\Desktop\\stuff\\MIUN\\quantitative_research\\video_compression\\compressed_videos\\BVI-HD\\av1\\3\\Typing_1920x1080_60fps_av1.mkv",
  "codec": "av1",
  "ok": "Input #0, mov,mp4,m4a,3gp,3g2,mj2, from 'C:\\Users\\Peter\\Desktop\\stuff\\MIUN\\quantitative_research\\video_compression\\videos\\BVI-HD\\BVI-HD_CDVL_videos\\ORIG\\Typing_1920x1080_60fps.mp4':\n  Metadata:\n    major_brand     : isom\n    minor_version   : 512\n    compatible_brands: isomiso2avc1mp41\n    encoder         : Lavf54.28.101\n  Duration: 00:00:05.00, start: 0.000000, bitrate: 203453 kb/s\n  Stream #0:0[0x1](und): Video: h264 (High 4:4:4 Predictive) (avc1 / 0x31637661), yuv420p(progressive), 1920x1080, 203448 kb/s, 60 fps, 60 tbr, 60 tbn (default)\n    Metadata:\n      handler_name    : VideoHandler\n      vendor_id       : [0][0][0][0]\n[out#0/matroska @ 000002507fce9000] Codec AVOption b:a (set bitrate (in bits/s)) has not been used for any stream. The most likely reason is either wrong type (e.g. a video option with no video streams) or that it is a private option of some decoder which was not actually used for any stream.\nStream mapping:\n  Stream #0:0 -> #0:0 (h264 (native) -> av1 (libsvtav1))\nPress [q] to stop, [?] for help\nSvt[info]: -------------------------------------------\nSvt[info]: SVT [version]:\tSVT-AV1 Encoder Lib v3.1.0-19-g6ecfe8ec\nSvt[info]: SVT [build]  :\tGCC 15.2.0\t 64 bit\nSvt[info]: LIB Build date: Aug 17 2025 11:37:13\nSvt[info]: -------------------------------------------\nSvt[info]: Level of Parallelism: 5\nSvt[info]: Number of PPCS 93\nSvt[info]: [asm level on system : up to avx2]\nSvt[info]: [asm level selected : up to avx2]\nSvt[info]: -------------------------------------------\nSvt[info]: SVT [config]: main profile\ttier (auto)\tlevel (auto)\nSvt[info]: SVT [config]: width / height / fps numerator / fps denominator \t\t: 1920 / 1080 / 60 / 1\nSvt[info]: SVT [config]: bit-depth / color format \t\t\t\t\t: 8 / YUV420\nSvt[info]: SVT [config]: preset / tune / pred struct \t\t\t\t\t: 4 / PSNR / random access\nSvt[info]: SVT [config]: gop size / mini-gop size / key-frame type \t\t\t: 321 / 16 / key frame\nSvt[info]: SVT [config]: BRC mode / target bitrate (kbps)\t\t\t\t: VBR / 3000 \nSvt[info]: SVT [config]: AQ mode / Variance Boost \t\t\t\t\t: 2 / 0\nSvt[info]: SVT [config]: sharpness / luminance-based QP bias \t\t\t\t: 0 / 0\nSvt[info]: SVT [config]: QP scale compress strength \t\t\t\t\t: 0\nSvt[info]: -------------------------------------------\nOutput #0, matroska, to 'C:\\Users\\Peter\\Desktop\\stuff\\MIUN\\quantitative_research\\video_compression\\compressed_videos\\BVI-HD\\av1\\3\\Typing_1920x1080_60fps_av1.mkv':\n  Metadata:\n    major_brand     : isom\n    minor_version   : 512\n    compatible_brands: isomiso2avc1mp41\n    encoder         : Lavf62.3.100\n  Stream #0:0(und): Video: av1 (AV01 / 0x31305641), yuv420p(tv, progressive), 1920x1080, q=2-31, 3000 kb/s, 60 fps, 1k tbn (default)\n    Metadata:\n      encoder         : Lavc62.11.100 libsvtav1\n      handler_name    : VideoHandler\n      vendor_id       : [0][0][0][0]\n    Side data:\n      cpb: bitrate max/min/avg: 0/0/3000000 buffer size: 3000000 vbv_delay: N/A\nframe=    0 fps=0.0 q=0.0 size=       0KiB time=N/A bitrate=N/A speed=N/A elapsed=0:00:01.09    \nframe=    0 fps=0.0 q=0.0 size=       0KiB time=N/A bitrate=N/A speed=N/A elapsed=0:00:01.69    \nframe=    0 fps=0.0 q=0.0 size=       0KiB time=N/A bitrate=N/A speed=N/A elapsed=0:00:02.26    \nframe=    0 fps=0.0 q=0.0 size=       0KiB time=N/A bitrate=N/A speed=N/A elapsed=0:00:02.81    \nframe=    0 fps=0.0 q=0.0 size=       0KiB time=N/A bitrate=N/A speed=N/A elapsed=0:00:03.37    \nframe=    0 fps=0.0 q=0.0 size=       0KiB time=N/A bitrate=N/A speed=N/A elapsed=0:00:03.92    \nframe=    1 fps=0.2 q=5.0 size=       1KiB time=00:00:00.00 bitrate=N/A speed=   0x elapsed=0:00:04.46    \nframe=    1 fps=0.2 q=5.0 size=       1KiB time=00:00:00.00 bitrate=N/A speed=   0x elapsed=0:00:05.01    \nframe=    2 fps=0.4 q=36.0 size=       1KiB time=00:00:00.01 bitrate= 341.8kbits/s speed=0.003x elapsed=0:00:05.55    \nframe=    6 fps=1.0 q=36.0 size=       1KiB time=00:00:00.08 bitrate=  68.4kbits/s speed=0.0137x elapsed=0:00:06.10    \nframe=    8 fps=1.2 q=36.0 size=       1KiB time=00:00:00.11 bitrate=  48.8kbits/s speed=0.0175x elapsed=0:00:06.65    \nframe=   12 fps=1.7 q=36.0 size=       1KiB time=00:00:00.16 bitrate=  34.2kbits/s speed=0.0231x elapsed=0:00:07.22    \nframe=   17 fps=2.2 q=17.0 size=       1KiB time=00:00:00.25 bitrate=  22.8kbits/s speed=0.0322x elapsed=0:00:07.77    \nframe=   20 fps=2.4 q=23.0 size=       1KiB time=00:00:00.31 bitrate=  18.0kbits/s speed=0.0381x elapsed=0:00:08.31    \nframe=   23 fps=2.6 q=29.0 size=       1KiB time=00:00:00.36 bitrate=  15.5kbits/s speed=0.0414x elapsed=0:00:08.86    \nframe=   26 fps=2.8 q=26.0 size=       1KiB time=00:00:00.41 bitrate=  13.7kbits/s speed=0.0443x elapsed=0:00:09.40    \nframe=   28 fps=2.8 q=25.0 size=       1KiB time=00:00:00.45 bitrate=  12.7kbits/s speed=0.0453x elapsed=0:00:09.94    \nframe=   33 fps=3.2 q=14.0 size=       1KiB time=00:00:00.53 bitrate=  10.7kbits/s speed=0.051x elapsed=0:00:10.46    \nframe=   36 fps=3.3 q=26.0 size=       1KiB time=00:00:00.58 bitrate=   9.8kbits/s speed=0.0531x elapsed=0:00:10.99    \nframe=   39 fps=3.4 q=27.0 size=       1KiB time=00:00:00.63 bitrate=   9.0kbits/s speed=0.0549x elapsed=0:00:11.53    \nframe=   42 fps=3.5 q=24.0 size=       1KiB time=00:00:00.68 bitrate=   8.3kbits/s speed=0.0567x elapsed=0:00:12.05    \nframe=   45 fps=3.6 q=28.0 size=       1KiB time=00:00:00.73 bitrate=   7.8kbits/s speed=0.0582x elapsed=0:00:12.60    \nframe=   49 fps=3.7 q=12.0 size=       1KiB time=00:00:00.78 bitrate=   7.3kbits/s speed=0.0596x elapsed=0:00:13.14    \nframe=   53 fps=3.9 q=28.0 size=       1KiB time=00:00:00.86 bitrate=   6.6kbits/s speed=0.0634x elapsed=0:00:13.66    \nframe=   54 fps=3.8 q=21.0 size=       1KiB time=00:00:00.88 bitrate=   6.4kbits/s speed=0.0623x elapsed=0:00:14.18    \nframe=   57 fps=3.9 q=20.0 size=       1KiB time=00:00:00.93 bitrate=   6.1kbits/s speed=0.0634x elapsed=0:00:14.71    \nframe=   61 fps=4.0 q=26.0 size=       1KiB time=00:00:00.98 bitrate=   5.8kbits/s speed=0.0643x elapsed=0:00:15.29    \nframe=   65 fps=4.1 q=11.0 size=       1KiB time=00:00:01.06 bitrate=   5.3kbits/s speed=0.0673x elapsed=0:00:15.84    \nframe=   68 fps=4.1 q=24.0 size=       1KiB time=00:00:01.11 bitrate=   5.1kbits/s speed=0.0681x elapsed=0:00:16.39    \nframe=   70 fps=4.1 q=25.0 size=       1KiB time=00:00:01.15 bitrate=   5.0kbits/s speed=0.0679x elapsed=0:00:16.92    \nframe=   74 fps=4.2 q=24.0 size=       1KiB time=00:00:01.21 bitrate=   4.7kbits/s speed=0.0697x elapsed=0:00:17.45    \nframe=   77 fps=4.3 q=27.0 size=       1KiB time=00:00:01.25 bitrate=   4.6kbits/s speed=0.0694x elapsed=0:00:18.02    \nframe=   80 fps=4.3 q=21.0 size=       1KiB time=00:00:01.31 bitrate=   4.3kbits/s speed=0.0709x elapsed=0:00:18.58    \nframe=   84 fps=4.4 q=21.0 size=       1KiB time=00:00:01.38 bitrate=   4.1kbits/s speed=0.0724x elapsed=0:00:19.10    \nframe=   86 fps=4.4 q=24.0 size=       1KiB time=00:00:01.41 bitrate=   4.0kbits/s speed=0.0722x elapsed=0:00:19.63    \nframe=   90 fps=4.5 q=23.0 size=       1KiB time=00:00:01.48 bitrate=   3.8kbits/s speed=0.0735x elapsed=0:00:20.16    \nframe=   94 fps=4.5 q=22.0 size=       1KiB time=00:00:01.53 bitrate=   3.7kbits/s speed=0.074x elapsed=0:00:20.73    \nframe=   99 fps=4.7 q=30.0 size=       1KiB time=00:00:01.63 bitrate=   3.5kbits/s speed=0.0768x elapsed=0:00:21.25    \nframe=  103 fps=4.7 q=28.0 size=       1KiB time=00:00:01.70 bitrate=   3.4kbits/s speed=0.0781x elapsed=0:00:21.78    \nframe=  106 fps=4.7 q=26.0 size=       1KiB time=00:00:01.75 bitrate=   3.3kbits/s speed=0.0784x elapsed=0:00:22.33    \nframe=  109 fps=4.7 q=27.0 size=       1KiB time=00:00:01.78 bitrate=   3.2kbits/s speed=0.0777x elapsed=0:00:22.95    \nframe=  112 fps=4.8 q=26.0 size=       1KiB time=00:00:01.83 bitrate=   3.1kbits/s speed=0.0778x elapsed=0:00:23.56    \nframe=  115 fps=4.8 q=24.0 size=       1KiB time=00:00:01.90 bitrate=   3.0kbits/s speed=0.0788x elapsed=0:00:24.11    \nframe=  117 fps=4.7 q=26.0 size=       1KiB time=00:00:01.93 bitrate=   2.9kbits/s speed=0.0782x elapsed=0:00:24.72    \nframe=  118 fps=4.7 q=22.0 size=       1KiB time=00:00:01.95 bitrate=   2.9kbits/s speed=0.0772x elapsed=0:00:25.26    \nframe=  121 fps=4.7 q=14.0 size=       1KiB time=00:00:02.00 bitrate=   2.8kbits/s speed=0.0775x elapsed=0:00:25.80    \nframe=  123 fps=4.7 q=23.0 size=       1KiB time=00:00:02.03 bitrate=   2.8kbits/s speed=0.0772x elapsed=0:00:26.33    \nframe=  126 fps=4.7 q=22.0 size=       1KiB time=00:00:02.08 bitrate=   2.7kbits/s speed=0.0773x elapsed=0:00:26.94    \nframe=  129 fps=4.7 q=8.0 size=       1KiB time=00:00:02.13 bitrate=   2.7kbits/s speed=0.0775x elapsed=0:00:27.51    \nframe=  133 fps=4.7 q=25.0 size=       1KiB time=00:00:02.18 bitrate=   2.6kbits/s speed=0.0779x elapsed=0:00:28.03    \nframe=  136 fps=4.8 q=24.0 size=       1KiB time=00:00:02.25 bitrate=   2.5kbits/s speed=0.0787x elapsed=0:00:28.58    \nframe=  141 fps=4.8 q=26.0 size=       1KiB time=00:00:02.33 bitrate=   2.4kbits/s speed=0.0801x elapsed=0:00:29.14    \nframe=  147 fps=4.9 q=31.0 size=       1KiB time=00:00:02.43 bitrate=   2.3kbits/s speed=0.0819x elapsed=0:00:29.69    \nframe=  153 fps=5.1 q=13.0 size=       1KiB time=00:00:02.53 bitrate=   2.2kbits/s speed=0.0839x elapsed=0:00:30.20    \nframe=  159 fps=5.2 q=26.0 size=       1KiB time=00:00:02.63 bitrate=   2.2kbits/s speed=0.0857x elapsed=0:00:30.73    \nframe=  165 fps=5.3 q=25.0 size=       1KiB time=00:00:02.73 bitrate=   2.1kbits/s speed=0.0875x elapsed=0:00:31.25    \nframe=  170 fps=5.4 q=24.0 size=       1KiB time=00:00:02.81 bitrate=   2.0kbits/s speed=0.0886x elapsed=0:00:31.77    \nframe=  177 fps=5.5 q=10.0 size=       1KiB time=00:00:02.93 bitrate=   1.9kbits/s speed=0.0909x elapsed=0:00:32.28    \nframe=  181 fps=5.5 q=21.0 size=       1KiB time=00:00:03.00 bitrate=   1.9kbits/s speed=0.0915x elapsed=0:00:32.80    \nframe=  185 fps=5.6 q=17.0 size=       1KiB time=00:00:03.06 bitrate=   1.9kbits/s speed=0.092x elapsed=0:00:33.32    \nframe=  191 fps=5.6 q=25.0 size=       1KiB time=00:00:03.16 bitrate=   1.8kbits/s speed=0.0936x elapsed=0:00:33.82    \nframe=  195 fps=5.7 q=24.0 size=       1KiB time=00:00:03.23 bitrate=   1.8kbits/s speed=0.0941x elapsed=0:00:34.34    \nframe=  198 fps=5.7 q=25.0 size=       1KiB time=00:00:03.28 bitrate=   1.7kbits/s speed=0.0941x elapsed=0:00:34.88    \nframe=  205 fps=5.8 q=25.0 size=       1KiB time=00:00:03.40 bitrate=   1.7kbits/s speed=0.096x elapsed=0:00:35.43    \nframe=  211 fps=5.9 q=26.0 size=       1KiB time=00:00:03.50 bitrate=   1.6kbits/s speed=0.0973x elapsed=0:00:35.96    \nframe=  217 fps=5.9 q=18.0 size=       1KiB time=00:00:03.60 bitrate=   1.6kbits/s speed=0.0987x elapsed=0:00:36.48    \nframe=  221 fps=6.0 q=26.0 size=       1KiB time=00:00:03.66 bitrate=   1.6kbits/s speed=0.0991x elapsed=0:00:37.00    \nframe=  229 fps=6.1 q=26.0 size=       1KiB time=00:00:03.80 bitrate=   1.5kbits/s speed=0.101x elapsed=0:00:37.54    \nframe=  233 fps=6.1 q=18.0 size=       1KiB time=00:00:03.86 bitrate=   1.5kbits/s speed=0.102x elapsed=0:00:38.05    \nframe=  237 fps=6.1 q=26.0 size=       1KiB time=00:00:03.93 bitrate=   1.4kbits/s speed=0.102x elapsed=0:00:38.56    \nframe=  243 fps=6.2 q=26.0 size=       1KiB time=00:00:04.03 bitrate=   1.4kbits/s speed=0.103x elapsed=0:00:39.08    \nframe=  249 fps=6.3 q=18.0 size=       1KiB time=00:00:04.13 bitrate=   1.4kbits/s speed=0.104x elapsed=0:00:39.59    \nframe=  253 fps=6.3 q=26.0 size=       1KiB time=00:00:04.20 bitrate=   1.4kbits/s speed=0.105x elapsed=0:00:40.11    \nframe=  257 fps=6.3 q=10.0 size=       1KiB time=00:00:04.26 bitrate=   1.3kbits/s speed=0.105x elapsed=0:00:40.63    \nframe=  263 fps=6.4 q=24.0 size=       1KiB time=00:00:04.36 bitrate=   1.3kbits/s speed=0.106x elapsed=0:00:41.16    \nframe=  267 fps=6.4 q=25.0 size=       1KiB time=00:00:04.43 bitrate=   1.3kbits/s speed=0.106x elapsed=0:00:41.68    \nframe=  273 fps=6.5 q=12.0 size=       1KiB time=00:00:04.53 bitrate=   1.3kbits/s speed=0.107x elapsed=0:00:42.18    \nframe=  281 fps=6.6 q=23.0 size=       1KiB time=00:00:04.66 bitrate=   1.2kbits/s speed=0.109x elapsed=0:00:42.70    \nframe=  285 fps=6.6 q=30.0 size=       1KiB time=00:00:04.73 bitrate=   1.2kbits/s speed=0.109x elapsed=0:00:43.22    \n[out#0/matroska @ 000002507fce9000] video:1568KiB audio:0KiB subtitle:0KiB other streams:0KiB global headers:0KiB muxing overhead: 0.132447%\nframe=  300 fps=6.9 q=35.0 Lsize=    1570KiB time=00:00:04.98 bitrate=2581.5kbits/s speed=0.114x elapsed=0:00:43.68    \n",
  "seconds": 44.10343909263611,
  "probe_out": {}
}